<?xml version="1.0" standalone="no"?>
<!DOCTYPE svg PUBLIC "-//W3C//DTD SVG 20010904//EN"
 "http://www.w3.org/TR/2001/REC-SVG-20010904/DTD/svg10.dtd">
<svg version="1.0" xmlns="http://www.w3.org/2000/svg"
 width="840.000000pt" height="840.000000pt" viewBox="0 0 840.000000 840.000000"
 preserveAspectRatio="xMidYMid meet">
<metadata>
Created by potrace 1.14, written by Peter Selinger 2001-2017
</metadata>
<g transform="translate(0.000000,840.000000) scale(0.100000,-0.100000)"
fill="#000000" stroke="none">
<path d="M5480 8013 c-23 -54 -55 -125 -70 -158 -15 -33 -42 -94 -60 -135 -18
-41 -48 -109 -67 -150 -52 -114 -68 -147 -111 -245 -87 -198 -375 -844 -404
-905 -17 -36 -34 -74 -38 -85 -11 -29 -935 -2097 -970 -2173 -17 -35 -30 -65
-30 -67 0 -2 -16 -39 -35 -82 -40 -88 -43 -94 -81 -179 -20 -46 -35 -66 -58
-77 -17 -8 -54 -35 -82 -61 -29 -25 -54 -46 -56 -46 -2 0 -4 26 -3 58 2 94 12
87 -148 86 -78 -1 -146 -2 -152 -3 -7 -1 -9 -188 -8 -543 l2 -543 -74 -165
c-40 -91 -84 -190 -98 -220 -14 -30 -71 -158 -127 -285 -55 -126 -110 -250
-122 -275 -11 -25 -66 -146 -121 -270 -55 -124 -113 -254 -129 -290 -17 -36
-102 -227 -190 -425 -88 -198 -164 -368 -169 -377 -9 -17 58 -18 1353 -18
l1363 0 74 168 c41 92 98 219 127 282 28 63 61 135 72 160 37 83 204 454 228
508 23 50 61 134 89 197 7 17 30 66 50 110 20 44 47 105 60 135 13 30 44 99
69 153 25 54 46 99 46 101 0 3 15 37 34 78 18 40 51 111 71 158 21 47 52 117
70 155 18 39 51 114 75 167 24 54 46 98 49 98 3 0 5 -49 4 -110 l-3 -110 155
0 c117 0 155 3 156 13 0 6 1 180 1 385 l1 372 30 30 c33 32 111 73 169 88 21
6 67 10 103 9 l65 -2 1 35 c1 43 1 253 0 261 -2 11 -104 -10 -161 -33 -30 -12
-74 -34 -97 -50 l-41 -28 74 168 c41 92 84 187 96 212 32 70 61 133 131 290
36 80 79 177 97 215 17 39 39 86 47 105 23 53 46 102 107 239 l56 123 -131
292 c-73 160 -144 318 -159 351 -15 33 -48 105 -73 160 -24 55 -57 127 -72
160 -15 33 -45 101 -67 150 -22 50 -51 115 -65 145 -14 30 -45 100 -70 155
-25 55 -63 138 -84 183 -22 46 -39 86 -39 87 0 2 -24 57 -54 122 -29 65 -95
210 -146 323 -51 113 -103 228 -115 255 -13 28 -53 118 -90 200 -37 83 -85
188 -107 235 -22 47 -48 105 -58 130 -10 25 -25 57 -33 73 l-14 27 -43 -97z"/>
<path d="M1117 3824 c-1 -1 -28 -4 -61 -8 -149 -16 -270 -76 -379 -189 -64
-66 -127 -196 -144 -296 -24 -141 8 -325 77 -441 106 -179 281 -278 505 -286
131 -4 209 11 310 61 62 30 175 124 175 146 0 4 -44 48 -97 97 l-97 91 -44
-40 c-60 -56 -123 -82 -197 -82 -112 1 -196 40 -255 120 -81 110 -88 284 -16
407 55 94 140 140 261 140 68 0 89 -4 138 -28 32 -16 70 -44 84 -62 l25 -34
60 58 c33 31 78 74 100 94 40 36 41 37 24 62 -19 29 -105 100 -149 123 -51 26
-135 52 -190 58 -67 8 -127 12 -130 9z"/>
<path d="M2277 3824 c-1 -1 -31 -4 -67 -7 -72 -6 -151 -25 -220 -53 -74 -29
-200 -110 -200 -127 0 -3 23 -44 50 -92 28 -48 50 -90 50 -95 0 -23 25 -20 63
8 103 73 192 102 306 99 102 -3 176 -38 211 -99 21 -36 25 -58 26 -135 l2 -92
-51 38 c-79 58 -200 95 -317 95 -57 0 -141 -19 -194 -43 -127 -57 -196 -162
-204 -308 -9 -166 63 -295 201 -363 79 -39 95 -42 196 -45 127 -4 256 37 329
105 18 16 35 30 37 30 2 0 3 -19 3 -42 0 -24 1 -49 1 -55 1 -10 39 -13 156
-13 l155 0 0 398 c0 246 -4 421 -11 458 -39 209 -202 326 -472 337 -27 1 -49
1 -50 1z m88 -684 c22 -6 61 -26 86 -45 l46 -33 0 -78 c0 -70 -2 -80 -25 -101
-66 -61 -205 -88 -303 -60 -80 24 -130 83 -131 156 -2 135 151 210 327 161z"/>
<path d="M7287 3824 c-1 -1 -28 -4 -59 -8 -59 -6 -158 -35 -213 -63 -135 -69
-257 -230 -291 -384 -3 -13 -8 -35 -11 -49 -11 -49 -5 -206 11 -270 55 -221
213 -376 437 -430 196 -47 459 0 607 109 l43 32 -67 97 c-37 53 -68 99 -70
101 -2 2 -25 -10 -51 -27 -98 -62 -253 -93 -355 -70 -113 26 -207 114 -233
221 l-7 27 430 0 431 0 3 28 c5 47 -10 190 -28 255 -34 121 -72 187 -158 272
-71 70 -157 119 -248 140 -54 12 -164 25 -171 19z m141 -276 c70 -26 126 -85
151 -158 11 -33 17 -61 13 -61 -4 -1 -132 -2 -284 -3 -277 -1 -278 -1 -278 20
0 34 58 137 92 164 75 59 206 75 306 38z"/>
</g>
</svg>
